<?xml version="1.0" encoding="utf-8"?>
<!-- Generator: Adobe Illustrator 21.0.0, SVG Export Plug-In . SVG Version: 6.00 Build 0)  -->
<svg version="1.1" id="Layer_1" xmlns="http://www.w3.org/2000/svg" xmlns:xlink="http://www.w3.org/1999/xlink" x="0px" y="0px"
	 viewBox="0 0 40 40" style="enable-background:new 0 0 40 40;" xml:space="preserve">
<style type="text/css">
	.st0{fill:#FFD667;}
</style>
<g id="firebase">
	<path class="st0" d="M23.8,12.4l-3.4,3.2l-3.2-6.4l1.7-3.7c0.4-0.7,1.1-0.7,1.5,0L23.8,12.4z"/>
	<path class="st0" d="M27.6,7.5c0.6-0.6,1.3-0.4,1.4,0.4l3.3,19.4l-11.1,6.6c-0.4,0.2-1.4,0.3-1.4,0.3s-0.9-0.1-1.3-0.3l-11-6.5
		L27.6,7.5z"/>
	<path class="st0" d="M17.3,9.2L7.6,27.6l4.3-26.9c0.2-0.8,0.6-0.9,1.1-0.2L17.3,9.2z"/>
</g>
<g>
	<path class="st0" d="M8,36.1h1.9v0.4H8.5v1.2h1.4v0.4H8.5v1.6H8V36.1z"/>
	<path class="st0" d="M11.6,36.1v3.6h-0.5v-3.6H11.6z"/>
	<path class="st0" d="M12.9,36.2c0.2,0,0.6-0.1,0.9-0.1c0.5,0,0.8,0.1,1,0.3s0.3,0.4,0.3,0.7c0,0.5-0.3,0.8-0.7,0.9l0,0
		c0.3,0.1,0.4,0.3,0.5,0.7c0.1,0.5,0.2,0.8,0.3,1h-0.5c-0.1-0.1-0.1-0.4-0.2-0.9c-0.1-0.5-0.3-0.7-0.7-0.7h-0.4v1.5h-0.5
		C12.9,39.6,12.9,36.2,12.9,36.2z M13.4,37.8h0.5c0.5,0,0.8-0.3,0.8-0.7c0-0.5-0.3-0.7-0.8-0.7c-0.2,0-0.4,0-0.5,0V37.8z"/>
	<path class="st0" d="M18.1,38h-1.4v1.3h1.5v0.4h-2v-3.6h1.9v0.4h-1.5v1.1H18V38H18.1z"/>
	<path class="st0" d="M19.4,36.2c0.2,0,0.5-0.1,0.8-0.1c0.5,0,0.8,0.1,1,0.3c0.2,0.1,0.3,0.3,0.3,0.6s-0.2,0.6-0.6,0.8l0,0
		c0.3,0.1,0.7,0.4,0.7,0.9c0,0.3-0.1,0.5-0.3,0.7c-0.2,0.2-0.7,0.3-1.2,0.3c-0.3,0-0.6,0-0.7,0C19.4,39.7,19.4,36.2,19.4,36.2z
		 M19.9,37.6h0.4c0.5,0,0.8-0.3,0.8-0.6c0-0.4-0.3-0.6-0.8-0.6c-0.2,0-0.3,0-0.4,0V37.6z M19.9,39.3c0.1,0,0.2,0,0.4,0
		c0.5,0,0.9-0.2,0.9-0.7s-0.4-0.7-0.9-0.7h-0.4V39.3z"/>
	<path class="st0" d="M23.4,38.6L23,39.7h-0.5l1.2-3.6h0.6l1.2,3.6H25l-0.4-1.1C24.6,38.6,23.4,38.6,23.4,38.6z M24.6,38.2l-0.3-1
		c-0.1-0.2-0.1-0.4-0.2-0.7l0,0c-0.1,0.2-0.1,0.4-0.2,0.6l-0.3,1h1V38.2z"/>
	<path class="st0" d="M26.5,39.1c0.2,0.1,0.5,0.2,0.8,0.2c0.5,0,0.7-0.2,0.7-0.6c0-0.3-0.2-0.5-0.7-0.7c-0.6-0.2-0.9-0.5-0.9-1
		c0-0.6,0.5-1,1.2-1c0.4,0,0.6,0.1,0.8,0.2l-0.1,0.4c-0.1-0.1-0.4-0.2-0.7-0.2c-0.5,0-0.7,0.3-0.7,0.5c0,0.3,0.2,0.5,0.7,0.7
		c0.6,0.2,0.9,0.5,0.9,1c0,0.6-0.4,1-1.2,1c-0.3,0-0.7-0.1-0.9-0.2L26.5,39.1z"/>
	<path class="st0" d="M31.6,38h-1.4v1.3h1.5v0.4h-2v-3.6h1.9v0.4h-1.5v1.1h1.4V38H31.6z"/>
</g>
</svg>
