<svg xmlns="http://www.w3.org/2000/svg" xmlns:xlink="http://www.w3.org/1999/xlink" viewBox="0 0 1488.25 1607.19"><defs><style>.cls-1{fill:none;}.cls-2{fill:#fff;}.cls-3{fill:#efefef;}.cls-4{fill:#077793;}.cls-5{clip-path:url(#clip-path);}.cls-6{fill:#08697f;}</style><clipPath id="clip-path" transform="translate(0 -288)"><path class="cls-1" d="M651.77,784.89H633.11q-6.93-19.78-24.48-42.07t-33.31-24.43q-7.16-1-19.1-1.67t-22-.72H481.47V849H515.2a85.25,85.25,0,0,0,24.88-3.23,43.55,43.55,0,0,0,18.66-11.6q6-6,11.6-20t6.82-24h18.18V932.95H577.14q-1-10.76-7.42-26.19t-11-20.45A41.74,41.74,0,0,0,541,874.94q-10.76-3.71-25.83-3.71H481.47V983.65a31.07,31.07,0,0,0,3.23,14.71q3.23,6.1,12.32,9.93a80.18,80.18,0,0,0,14.47,3.95q9.21,1.79,18.3,2.75v18.66h-183V1015q6.93-.72,18.42-2t16-3.23q8.61-3.35,12-9.33t3.35-15.31V745.66a32,32,0,0,0-3-14.23q-3-6.1-12.32-10.17a100.43,100.43,0,0,0-17.7-5.26q-11-2.39-16.74-3.11V694.24h305Zm259.52,55.25A49,49,0,0,1,900,872.07q-11.24,13.76-29.66,13.75-17.46,0-29.54-8.81t-12.08-26a54.65,54.65,0,0,1,1.2-13q1.2-4.64,2.15-8.69-11,.48-23.2,7.59a76.13,76.13,0,0,0-21.53,19V987.24q0,8.38,2.63,13.87a18.55,18.55,0,0,0,8.85,8.61q5.26,2.64,17.1,4.43t17.1,2v17.46h-160v-17.46q6-.48,12.08-1.32a58.28,58.28,0,0,0,10.4-2.27q7.65-2.63,10.52-8.13t2.87-14.35V850.9a29.54,29.54,0,0,0-4.07-15.43,35.19,35.19,0,0,0-9.81-10.88,39.57,39.57,0,0,0-10.88-4.78,76.83,76.83,0,0,0-14.47-2.63V799.72L783.8,793.5l3.59,3.59v34.68h1q16.5-19.13,35-30A75.25,75.25,0,0,1,862,790.87q22.24,0,35.76,13.75T911.29,840.14ZM1172,824.59a109.71,109.71,0,0,1,27,39.47,130.94,130.94,0,0,1,9.33,49.75,136.45,136.45,0,0,1-9.21,50.11,109.59,109.59,0,0,1-26.91,40.3,128.73,128.73,0,0,1-45.09,27.51q-26.19,9.56-59.92,9.57-29.18,0-53.7-8.37a126.17,126.17,0,0,1-43.41-25.11,113.81,113.81,0,0,1-28.7-39.58q-10.53-23.56-10.52-52.74,0-28.7,9.21-51.07a114.61,114.61,0,0,1,27.63-39.82q17.7-16.74,43.65-26t58-9.21q33.48,0,59,9.21T1172,824.59Zm-61.23,165.76q5.26-13.39,7.77-32.53a346,346,0,0,0,2.51-44.49,351.48,351.48,0,0,0-2.39-38.27q-2.39-21.53-7.18-34-5.74-15.07-15.91-23.68t-25.71-8.61q-17,0-27.15,9.33t-15.67,24.16a132.49,132.49,0,0,0-6.94,31.93,366.21,366.21,0,0,0-1.91,38.15q0,26.07,1.67,43.17a134.87,134.87,0,0,0,8.13,34.32q5.5,14.83,15.79,23.44t26.07,8.61q14.35,0,24.64-8T1110.77,990.35Zm444.17,43.29H1411.19v-17.46q4.54-.48,11-1.2a30.17,30.17,0,0,0,9.81-2.39,15.21,15.21,0,0,0,7.18-7.65q2.15-5,2.15-14.83V878.17q0-24.4-9-36.72t-26.5-12.32A54.15,54.15,0,0,0,1388,832a66.7,66.7,0,0,0-16.19,8.37,55.11,55.11,0,0,0-11.15,9.81q-4.2,5-7.08,8.85V987.48a35.79,35.79,0,0,0,2.39,14,16.68,16.68,0,0,0,7.89,8.49,45.62,45.62,0,0,0,9.57,3.83,74.35,74.35,0,0,0,11.24,2.39v17.46H1239.21v-17.46q6-.48,12.08-1.32a58.28,58.28,0,0,0,10.4-2.27q7.65-2.63,10.52-8.13t2.87-14.35V850.9a30.72,30.72,0,0,0-3.83-14.59,34.24,34.24,0,0,0-10-11.72,39.57,39.57,0,0,0-10.88-4.78,76.83,76.83,0,0,0-14.47-2.63V799.72L1350,793.5l3.59,3.59v34.68h1q6.69-6,16.26-14.35a156.66,156.66,0,0,1,17.7-13.63q8.85-5.74,23.2-9.81a111.88,111.88,0,0,1,30.62-4.07q39,0,58.48,22.13t19.49,58.72V988q0,8.85,2.63,14.11t9.81,8.37a82.27,82.27,0,0,0,9.45,3.35,68.9,68.9,0,0,0,12.8,2.39Zm200.2-11a308.22,308.22,0,0,1-32.77,12.08q-17.46,5.38-42.58,5.38-37.31,0-55.37-18.16t-18.06-51.85V823.4h-43.05V797.33h44V724.85h77.5v72.47H1752V823.4h-66.73V954.3q0,28,7.8,39.65t28,11.71q6.48,0,18-1t16.08-2.15ZM647.7,1180.82H629.53q-6.94-19.3-23.92-39.08t-33.73-23.35q-7.18-1.67-20-2t-21.17-.36H481.47v130.83h34.92a86,86,0,0,0,23.92-3.11,45.41,45.41,0,0,0,19.61-12q5.5-5.5,11.12-19.37a115.72,115.72,0,0,0,7.29-24.16h18.18v141.6H578.34q-1.43-10-7.29-25.23t-11.12-20.93a40.9,40.9,0,0,0-18.66-11.84,86.78,86.78,0,0,0-24.88-3.23H481.47v97.83q0,15.31,2.27,24.28t8.49,13.75q6,4.55,16.38,6a218.31,218.31,0,0,0,28.34,1.44q8.37,0,20.09-.24a182.43,182.43,0,0,0,20.57-1.44,128.33,128.33,0,0,0,18.78-3.59q8.73-2.39,13-6.94,11.48-11.72,25.83-35.76t18.9-36h17.46l-6.46,105.72H346.81V1415q6.69-.48,18.18-1.91t16.26-3.35q9.09-3.82,12.2-9.69t3.11-14.95V1145.66q0-8.61-2.63-14.23t-12.68-10.17a86.17,86.17,0,0,0-17.46-5.26q-11.24-2.39-17-3.11v-18.66H647.7Zm365.48,252.82H869.43v-17.46q4.54-.48,11-1.2a30.17,30.17,0,0,0,9.81-2.39,15.21,15.21,0,0,0,7.18-7.65q2.15-5,2.15-14.83V1278.17q0-24.4-9-36.71t-26.5-12.32A54.16,54.16,0,0,0,846.2,1232a66.68,66.68,0,0,0-16.19,8.37,55.09,55.09,0,0,0-11.15,9.81q-4.2,5-7.08,8.85v128.44a35.79,35.79,0,0,0,2.39,14,16.68,16.68,0,0,0,7.89,8.49,45.62,45.62,0,0,0,9.57,3.83,74.35,74.35,0,0,0,11.24,2.39v17.46H697.45v-17.46q6-.48,12.08-1.32a58.28,58.28,0,0,0,10.4-2.27q7.65-2.63,10.52-8.13t2.87-14.35V1250.9a30.72,30.72,0,0,0-3.83-14.59,34.24,34.24,0,0,0-10-11.72,39.6,39.6,0,0,0-10.88-4.78,76.83,76.83,0,0,0-14.47-2.63v-17.46l114.09-6.22,3.59,3.59v34.68h1q6.69-6,16.26-14.35a156.55,156.55,0,0,1,17.7-13.63q8.85-5.74,23.2-9.81a111.86,111.86,0,0,1,30.62-4.07q39,0,58.48,22.13t19.49,58.72V1388q0,8.85,2.63,14.11t9.81,8.37a82.27,82.27,0,0,0,9.45,3.35,68.9,68.9,0,0,0,12.8,2.39Zm331.27-5-117.92,6.94-3.59-3.35v-22l-1.67-.48q-11.7,12.68-31.65,22.13a93.23,93.23,0,0,1-40.25,9.45q-48.25,0-79.55-35.88t-31.29-92.8q0-50.46,35-86.58t84.68-36.12a147.32,147.32,0,0,1,36.79,4.42q17.2,4.43,27.47,10.41v-78.21a39.21,39.21,0,0,0-3.59-16.62,30,30,0,0,0-9.57-12.08,48.52,48.52,0,0,0-18.54-7.53,194.14,194.14,0,0,0-22.36-3.23V1069.6l129.39-6.22,3.6,3.83v313.57q0,9.09,3,15.31a21.66,21.66,0,0,0,9.63,9.81q5,2.63,14.63,3.83t15.82,1.44Zm-122-42.58V1250.9a106.57,106.57,0,0,0-4.65-12.2,50.22,50.22,0,0,0-8.23-12.68,43,43,0,0,0-12.76-8.85,41.25,41.25,0,0,0-18-3.83q-23.86,0-39.13,27t-15.27,76.3a199.72,199.72,0,0,0,2.74,34.8,91.65,91.65,0,0,0,9.67,28.1,54.51,54.51,0,0,0,17.77,19.85q10.85,7.17,26.13,7.17,14.55,0,24.1-5.62A71.75,71.75,0,0,0,1222.47,1386Z"/></clipPath></defs><title>hero_triangle_withtext</title><g id="Layer_4" data-name="Layer 4"><rect class="cls-2" y="804" width="1488" height="803"/></g><g id="Layer_5" data-name="Layer 5"><path class="cls-3" d="M336.39,1500.94q31,20.3,50.14,54.08t19.1,82.73q0,43-17.07,74.85a151.27,151.27,0,0,1-45.25,52.17q-28.65,20.3-65.06,30.2a289.23,289.23,0,0,1-76.29,9.91H31.25v-18.62q7.64-.23,19.1-1.43T65.63,1782q8.6-3.58,11.94-9.67a30.12,30.12,0,0,0,3.34-14.68v-240.2a34,34,0,0,0-3.1-14.68q-3.11-6.56-12.18-10.62a71.26,71.26,0,0,0-19.22-5.49q-10.15-1.43-15.64-1.91v-18.62H211q28.89,0,61.84,7.4T336.39,1500.94Zm-48.71,242.83q11.7-19.1,17.07-45.49t5.37-60.77q0-33.67-7.16-61.36t-21-47.28a96.26,96.26,0,0,0-34.5-30.32q-20.66-10.74-46.92-10.74-8.36,0-19,.36t-15.88.6v257.15a46.3,46.3,0,0,0,2.27,15.16,27.81,27.81,0,0,0,7.76,11.58,37.93,37.93,0,0,0,13.49,7.76q8,2.75,20.89,2.75,27,0,46.32-10A79.13,79.13,0,0,0,287.68,1743.77Z" transform="translate(0 -288)"/><path class="cls-3" d="M693.11,1747.83a145.07,145.07,0,0,1-20.18,25.67,122.4,122.4,0,0,1-26.86,20.65,147.23,147.23,0,0,1-32.35,13.73q-16.36,4.66-37.61,4.66-35.34,0-61-10t-42.38-27a107.92,107.92,0,0,1-25-40,147.53,147.53,0,0,1-8.24-50,125.53,125.53,0,0,1,34.38-86.43q16.23-17,40.95-27.46t55.28-10.51q33.42,0,54.92,8.12t35.58,22.45a81.41,81.41,0,0,1,19.82,32.11,121.19,121.19,0,0,1,6.21,38.8v15.52H525.26q0,49,18.86,74.5t59.93,25.55a69.61,69.61,0,0,0,40.35-12.3A115.09,115.09,0,0,0,675,1734.7Zm-91.21-90.73q0-14.33-1.43-29.37t-5-24.59q-4.06-11.22-11.1-17t-17.79-5.73q-18.39,0-29.37,18.62t-11.94,59Z" transform="translate(0 -288)"/><path class="cls-3" d="M988.23,1585.46a54.38,54.38,0,0,0-20.89,8.12q-10.15,6.45-16.83,20.06-16.72,34.86-32.83,70.32T886,1752.6q-4.78,10-10.86,25.79T865,1807H821.09q-27.46-63.75-46.92-105.77T733,1611a38.72,38.72,0,0,0-15.64-17.67,55.3,55.3,0,0,0-21.61-7.88V1568H842.82v17.43a74.66,74.66,0,0,0-19.09,3.58q-11,3.35-11,8.6a15.09,15.09,0,0,0,1,4.3q1,2.87,2.39,6.45,7.66,18.14,23.1,52.27t32.68,71.83q11.91-26,22.76-50.95t26.82-63.6a39.16,39.16,0,0,0,2.51-9.31c.24-2.39.36-4,.36-4.78q0-4.3-4.19-7.52a43.75,43.75,0,0,0-9.93-5.61,73.23,73.23,0,0,0-11.49-3.58q-5.51-1.19-9.1-1.67V1568h98.61Z" transform="translate(0 -288)"/><path class="cls-3" d="M1249.92,1747.83a145.16,145.16,0,0,1-20.18,25.67,122.42,122.42,0,0,1-26.86,20.65,147.25,147.25,0,0,1-32.35,13.73q-16.36,4.66-37.61,4.66-35.34,0-61-10t-42.38-27a107.92,107.92,0,0,1-25-40,147.53,147.53,0,0,1-8.24-50,125.53,125.53,0,0,1,34.38-86.43q16.23-17,40.95-27.46t55.28-10.51q33.43,0,54.92,8.12t35.58,22.45a81.42,81.42,0,0,1,19.82,32.11,121.21,121.21,0,0,1,6.21,38.8v15.52H1082.07q0,49,18.86,74.5t59.93,25.55a69.61,69.61,0,0,0,40.35-12.3,115.1,115.1,0,0,0,30.56-31.16Zm-91.21-90.73q0-14.33-1.43-29.37t-5-24.59q-4.06-11.22-11.1-17t-17.79-5.73q-18.39,0-29.37,18.62t-11.94,59Z" transform="translate(0 -288)"/><path class="cls-3" d="M1418.73,1804.89H1268.31v-17.43q6.24-.48,12.14-1.19a46.93,46.93,0,0,0,10.46-2.39q7.69-2.87,10.46-8.24t2.76-14.21V1496.88a38.62,38.62,0,0,0-3.7-16.83,28.22,28.22,0,0,0-9.91-11.82q-4.78-3.1-14.45-6a79.25,79.25,0,0,0-17.07-3.34v-17.43l120.33-6.21,3.59,3.82v319.23q0,8.84,3.12,14.33a20.85,20.85,0,0,0,10.1,8.6,93.24,93.24,0,0,0,10.09,3.82,62.14,62.14,0,0,0,12.5,2.39Z" transform="translate(0 -288)"/></g><g id="Layer_3" data-name="Layer 3"><polygon class="cls-4" points="0.26 803.59 1488.25 1607.19 1488.25 0 0.26 803.59"/></g><g id="Layer_1" data-name="Layer 1"><g class="cls-5"><polygon class="cls-6" points="0.01 803.59 1488 1607.19 1488 0 0.01 803.59"/></g></g></svg>