<?xml version="1.0" encoding="utf-8"?>
<!-- Generator: Adobe Illustrator 21.0.0, SVG Export Plug-In . SVG Version: 6.00 Build 0)  -->
<svg version="1.1" xmlns="http://www.w3.org/2000/svg" xmlns:xlink="http://www.w3.org/1999/xlink" x="0px" y="0px"
	 viewBox="0 0 1488 1895" style="enable-background:new 0 0 1488 1895;" xml:space="preserve">
<style type="text/css">
	.st0{fill:#FFFFFF;}
	.st1{fill:#EFEFEF;}
	.st2{fill:#077793;}
	.st3{clip-path:url(#SVGID_2_);}
	.st4{fill:#0A738C;}
</style>
<g id="Layer_4">
	<rect y="1092" class="st0" width="1488" height="803"/>
</g>
<g id="Layer_5">
	<g>
		<path class="st1" d="M336.4,1500.9c20.7,13.5,37.4,31.6,50.1,54.1c12.7,22.5,19.1,50.1,19.1,82.7c0,28.7-5.7,53.6-17.1,74.9
			c-11.4,21.2-26.5,38.6-45.2,52.2c-19.1,13.5-40.8,23.6-65.1,30.2c-24.3,6.6-49.7,9.9-76.3,9.9H31.2v-18.6
			c5.1-0.2,11.5-0.6,19.1-1.4c7.6-0.8,12.7-1.8,15.3-2.9c5.7-2.4,9.7-5.6,11.9-9.7c2.2-4.1,3.3-9,3.3-14.7v-240.2
			c0-5.4-1-10.3-3.1-14.7c-2.1-4.4-6.1-7.9-12.2-10.6c-6.1-2.7-12.5-4.5-19.2-5.5c-6.8-1-12-1.6-15.6-1.9v-18.6H211
			c19.3,0,39.9,2.5,61.8,7.4C294.8,1478.4,316,1487.6,336.4,1500.9z M287.7,1743.8c7.8-12.7,13.5-27.9,17.1-45.5
			c3.6-17.6,5.4-37.8,5.4-60.8c0-22.4-2.4-42.9-7.2-61.4c-4.8-18.5-11.8-34.2-21-47.3c-9.2-13-20.7-23.2-34.5-30.3
			c-13.8-7.2-29.4-10.7-46.9-10.7c-5.6,0-11.9,0.1-19,0.4c-7.1,0.2-12.4,0.4-15.9,0.6v257.2c0,5.7,0.8,10.8,2.3,15.2
			c1.5,4.4,4.1,8.2,7.8,11.6c3.7,3.3,8.2,5.9,13.5,7.8c5.3,1.8,12.3,2.7,20.9,2.7c18,0,33.4-3.3,46.3-10S279.7,1756.7,287.7,1743.8z
			"/>
		<path class="st1" d="M693.1,1747.8c-5.6,9.1-12.3,17.6-20.2,25.7c-7.9,8-16.8,14.9-26.9,20.7c-10.7,6.1-21.5,10.6-32.4,13.7
			c-10.9,3.1-23.4,4.7-37.6,4.7c-23.6,0-43.9-3.3-61-10c-17.1-6.7-31.2-15.7-42.4-27c-11.1-11.3-19.5-24.6-25-40
			c-5.5-15.4-8.2-32-8.2-50c0-16.2,3-31.8,9-46.7c6-14.9,14.4-28.1,25.4-39.8c10.8-11.3,24.5-20.5,40.9-27.5
			c16.5-7,34.9-10.5,55.3-10.5c22.3,0,40.6,2.7,54.9,8.1c14.3,5.4,26.2,12.9,35.6,22.4c9.1,9.1,15.7,19.8,19.8,32.1
			c4.1,12.3,6.2,25.3,6.2,38.8v15.5H525.3c0,32.6,6.3,57.5,18.9,74.5c12.6,17,32.6,25.5,59.9,25.5c15,0,28.4-4.1,40.4-12.3
			c11.9-8.2,22.1-18.6,30.6-31.2L693.1,1747.8z M601.9,1657.1c0-9.6-0.5-19.3-1.4-29.4s-2.6-18.2-5-24.6c-2.7-7.5-6.4-13.1-11.1-17
			c-4.7-3.8-10.6-5.7-17.8-5.7c-12.3,0-22,6.2-29.4,18.6c-7.3,12.4-11.3,32.1-11.9,59L601.9,1657.1z"/>
		<path class="st1" d="M988.2,1585.5c-7.2,1.1-14.1,3.8-20.9,8.1c-6.8,4.3-12.4,11-16.8,20.1c-11.1,23.2-22.1,46.7-32.8,70.3
			c-10.7,23.6-21.3,46.5-31.6,68.6c-3.2,6.7-6.8,15.3-10.9,25.8c-4.1,10.5-7.4,20.1-10.1,28.7h-43.9
			c-18.3-42.5-33.9-77.8-46.9-105.8c-13-28-26.7-58.1-41.2-90.3c-3.3-7.5-8.6-13.4-15.6-17.7c-7.1-4.3-14.3-6.9-21.6-7.9V1568h147.1
			v17.4c-5.4,0.2-11.8,1.4-19.1,3.6c-7.3,2.2-11,5.1-11,8.6c0,1,0.3,2.4,1,4.3c0.6,1.9,1.4,4.1,2.4,6.4
			c5.1,12.1,12.8,29.5,23.1,52.3s21.2,46.7,32.7,71.8c7.9-17.3,15.5-34.3,22.8-50.9c7.2-16.6,16.2-37.8,26.8-63.6
			c1.4-3.8,2.3-6.9,2.5-9.3c0.2-2.4,0.4-4,0.4-4.8c0-2.9-1.4-5.4-4.2-7.5c-2.8-2.1-6.1-4-9.9-5.6c-4-1.6-7.8-2.8-11.5-3.6
			c-3.7-0.8-6.7-1.4-9.1-1.7V1568h98.6V1585.5z"/>
		<path class="st1" d="M1249.9,1747.8c-5.6,9.1-12.3,17.6-20.2,25.7c-7.9,8-16.8,14.9-26.9,20.7c-10.7,6.1-21.5,10.6-32.4,13.7
			c-10.9,3.1-23.4,4.7-37.6,4.7c-23.6,0-43.9-3.3-61-10c-17.1-6.7-31.2-15.7-42.4-27c-11.1-11.3-19.5-24.6-25-40
			c-5.5-15.4-8.2-32-8.2-50c0-16.2,3-31.8,9-46.7c6-14.9,14.4-28.1,25.4-39.8c10.8-11.3,24.5-20.5,40.9-27.5
			c16.5-7,34.9-10.5,55.3-10.5c22.3,0,40.6,2.7,54.9,8.1c14.3,5.4,26.2,12.9,35.6,22.4c9.1,9.1,15.7,19.8,19.8,32.1
			c4.1,12.3,6.2,25.3,6.2,38.8v15.5h-161.4c0,32.6,6.3,57.5,18.9,74.5c12.6,17,32.6,25.5,59.9,25.5c15,0,28.4-4.1,40.4-12.3
			c11.9-8.2,22.1-18.6,30.6-31.2L1249.9,1747.8z M1158.7,1657.1c0-9.6-0.5-19.3-1.4-29.4s-2.6-18.2-5-24.6
			c-2.7-7.5-6.4-13.1-11.1-17c-4.7-3.8-10.6-5.7-17.8-5.7c-12.3,0-22,6.2-29.4,18.6c-7.3,12.4-11.3,32.1-11.9,59L1158.7,1657.1z"/>
		<path class="st1" d="M1418.7,1804.9h-150.4v-17.4c4.2-0.3,8.2-0.7,12.1-1.2s7.4-1.3,10.5-2.4c5.1-1.9,8.6-4.7,10.5-8.2
			c1.8-3.6,2.8-8.3,2.8-14.2v-264.6c0-6-1.2-11.7-3.7-16.8c-2.5-5.2-5.8-9.1-9.9-11.8c-3.2-2.1-8-4.1-14.4-6
			c-6.4-1.9-12.1-3-17.1-3.3v-17.4l120.3-6.2l3.6,3.8v319.2c0,5.9,1,10.7,3.1,14.3c2.1,3.7,5.5,6.5,10.1,8.6
			c3.2,1.4,6.6,2.7,10.1,3.8c3.5,1.1,7.7,1.9,12.5,2.4V1804.9z"/>
	</g>
</g>
<g id="Layer_3">
	<g>
		<polygon class="st2" points="0.3,1091.6 1488.3,1895.2 1488.3,288 		"/>
	</g>
</g>
<g id="Layer_1">
	<defs>
		<path id="SVGID_1_" d="M651.8,784.9h-18.7c-4.6-13.2-12.8-27.2-24.5-42.1c-11.7-14.9-22.8-23-33.3-24.4
			c-4.8-0.6-11.1-1.2-19.1-1.7c-8-0.5-15.3-0.7-22-0.7h-52.8v133h33.7c9.6,0,17.9-1.1,24.9-3.2c7-2.2,13.2-6,18.7-11.6
			c4-4,7.9-10.6,11.6-20c3.7-9.3,6-17.3,6.8-24h18.2v142.8h-18.2c-0.6-7.2-3.1-15.9-7.4-26.2c-4.3-10.3-8-17.1-11-20.5
			c-4.6-5.1-10.5-8.9-17.7-11.4c-7.2-2.5-15.8-3.7-25.8-3.7h-33.7v112.4c0,5.7,1.1,10.6,3.2,14.7c2.2,4.1,6.3,7.4,12.3,9.9
			c3.5,1.4,8.3,2.8,14.5,3.9c6.1,1.2,12.2,2.1,18.3,2.8v18.7h-183V1015c4.6-0.5,10.8-1.2,18.4-2c7.7-0.9,13-2,16-3.2
			c5.7-2.2,9.7-5.3,12-9.3c2.2-4,3.3-9.1,3.3-15.3V745.7c0-5.4-1-10.2-3-14.2c-2-4.1-6.1-7.5-12.3-10.2c-4.5-1.9-10.4-3.7-17.7-5.3
			c-7.3-1.6-12.9-2.6-16.7-3.1v-18.7h305V784.9z M911.3,840.1c0,12.1-3.7,22.8-11.2,31.9c-7.5,9.2-17.4,13.8-29.7,13.8
			c-11.6,0-21.5-2.9-29.5-8.8c-8.1-5.9-12.1-14.5-12.1-26c0-5.6,0.4-9.9,1.2-13c0.8-3.1,1.5-6,2.2-8.7c-7.3,0.3-15.1,2.8-23.2,7.6
			c-8.1,4.7-15.3,11.1-21.5,19v131.3c0,5.6,0.9,10.2,2.6,13.9c1.8,3.7,4.7,6.5,8.8,8.6c3.5,1.8,9.2,3.2,17.1,4.4
			c7.9,1.2,13.6,1.9,17.1,2v17.5h-160v-17.5c4-0.3,8-0.8,12.1-1.3c4.1-0.6,7.5-1.3,10.4-2.3c5.1-1.8,8.6-4.5,10.5-8.1
			c1.9-3.7,2.9-8.5,2.9-14.4V850.9c0-5.7-1.4-10.9-4.1-15.4c-2.7-4.5-6-8.2-9.8-10.9c-2.9-1.9-6.5-3.5-10.9-4.8
			c-4.4-1.3-9.2-2.2-14.5-2.6v-17.5l114.1-6.2l3.6,3.6v34.7h1c11-12.8,22.7-22.8,35-30c12.4-7.3,25.2-10.9,38.6-10.9
			c14.8,0,26.7,4.6,35.8,13.8C906.8,813.8,911.3,825.6,911.3,840.1z M1172,824.6c11.8,11,20.8,24.2,27,39.5
			c6.2,15.3,9.3,31.9,9.3,49.8c0,17.7-3.1,34.4-9.2,50.1c-6.1,15.7-15.1,29.1-26.9,40.3c-12.6,12-27.6,21.1-45.1,27.5
			c-17.5,6.4-37.4,9.6-59.9,9.6c-19.5,0-37.4-2.8-53.7-8.4c-16.3-5.6-30.8-14-43.4-25.1c-12.1-10.7-21.7-23.9-28.7-39.6
			c-7-15.7-10.5-33.3-10.5-52.7c0-19.1,3.1-36.2,9.2-51.1c6.1-14.9,15.3-28.2,27.6-39.8c11.8-11.2,26.3-19.8,43.7-26
			c17.3-6.1,36.6-9.2,58-9.2c22.3,0,42,3.1,59,9.2C1145.3,804.8,1159.9,813.4,1172,824.6z M1110.8,990.3c3.5-8.9,6.1-19.8,7.8-32.5
			c1.7-12.8,2.5-27.6,2.5-44.5c0-11.2-0.8-23.9-2.4-38.3c-1.6-14.4-4-25.7-7.2-34c-3.8-10-9.1-17.9-15.9-23.7
			c-6.8-5.7-15.3-8.6-25.7-8.6c-11.3,0-20.4,3.1-27.1,9.3c-6.8,6.2-12,14.3-15.7,24.2c-3.3,9.1-5.7,19.7-6.9,31.9
			c-1.3,12.2-1.9,24.9-1.9,38.2c0,17.4,0.6,31.8,1.7,43.2c1.1,11.4,3.8,22.8,8.1,34.3c3.7,9.9,8.9,17.7,15.8,23.4
			c6.9,5.7,15.5,8.6,26.1,8.6c9.6,0,17.8-2.7,24.6-8C1101.4,1008.6,1106.8,1000.7,1110.8,990.3z M1554.9,1033.6h-143.8v-17.5
			c3-0.3,6.7-0.7,11-1.2c4.3-0.5,7.6-1.3,9.8-2.4c3.3-1.8,5.7-4.3,7.2-7.7c1.4-3.3,2.2-8.3,2.2-14.8V878.2c0-16.3-3-28.5-9-36.7
			c-6-8.2-14.8-12.3-26.5-12.3c-6.4,0-12.4,1-17.9,2.9s-10.9,4.7-16.2,8.4c-4.6,3.2-8.4,6.5-11.2,9.8c-2.8,3.3-5.2,6.3-7.1,8.9
			v128.4c0,5.6,0.8,10.2,2.4,14c1.6,3.7,4.2,6.6,7.9,8.5c2.5,1.4,5.7,2.7,9.6,3.8c3.8,1.1,7.6,1.9,11.2,2.4v17.5h-145.4v-17.5
			c4-0.3,8-0.8,12.1-1.3c4.1-0.6,7.5-1.3,10.4-2.3c5.1-1.8,8.6-4.5,10.5-8.1c1.9-3.7,2.9-8.5,2.9-14.4V850.9c0-4.9-1.3-9.8-3.8-14.6
			c-2.6-4.8-5.9-8.7-10-11.7c-2.9-1.9-6.5-3.5-10.9-4.8c-4.4-1.3-9.2-2.2-14.5-2.6v-17.5l114.1-6.2l3.6,3.6v34.7h1
			c4.5-4,9.9-8.8,16.3-14.4c6.4-5.6,12.3-10.1,17.7-13.6c5.9-3.8,13.6-7.1,23.2-9.8c9.6-2.7,19.8-4.1,30.6-4.1
			c26,0,45.5,7.4,58.5,22.1c13,14.8,19.5,34.3,19.5,58.7V988c0,5.9,0.9,10.6,2.6,14.1c1.8,3.5,5,6.3,9.8,8.4
			c2.5,1.1,5.7,2.2,9.4,3.3c3.7,1.1,8,1.9,12.8,2.4V1033.6z M1755.1,1022.6c-10.2,4.5-21.1,8.5-32.8,12.1
			c-11.6,3.6-25.8,5.4-42.6,5.4c-24.9,0-43.3-6.1-55.4-18.2c-12-12.1-18.1-29.4-18.1-51.8V823.4h-43.1v-26.1h44v-72.5h77.5v72.5
			h67.2v26.1h-66.7v130.9c0,18.6,2.6,31.8,7.8,39.7c5.2,7.8,14.5,11.7,28,11.7c4.3,0,10.3-0.3,18-1c7.7-0.6,13-1.4,16.1-2.2V1022.6z
			 M647.7,1180.8h-18.2c-4.6-12.9-12.6-25.9-23.9-39.1c-11.3-13.2-22.6-21-33.7-23.4c-4.8-1.1-11.4-1.8-20-2
			c-8.5-0.2-15.6-0.4-21.2-0.4h-49.3v130.8h34.9c8.8,0,16.7-1,23.9-3.1c7.2-2.1,13.7-6.1,19.6-12c3.7-3.7,7.4-10.1,11.1-19.4
			c3.7-9.2,6.2-17.3,7.3-24.2h18.2v141.6h-18.2c-1-6.7-3.4-15.1-7.3-25.2c-3.9-10.1-7.6-17.1-11.1-20.9c-5.3-5.7-11.5-9.7-18.7-11.8
			c-7.2-2.2-15.5-3.2-24.9-3.2h-34.9v97.8c0,10.2,0.8,18.3,2.3,24.3c1.5,6,4.3,10.6,8.5,13.8c4,3,9.4,5,16.4,6s16.4,1.4,28.3,1.4
			c5.6,0,12.3-0.1,20.1-0.2c7.8-0.2,14.7-0.6,20.6-1.4c6.7-0.8,13-2,18.8-3.6c5.8-1.6,10.2-3.9,13-6.9c7.7-7.8,16.3-19.7,25.8-35.8
			s15.9-28,18.9-36h17.5l-6.5,105.7H346.8V1415c4.5-0.3,10.5-1,18.2-1.9c7.7-1,13.1-2.1,16.3-3.3c6.1-2.5,10.1-5.8,12.2-9.7
			c2.1-3.9,3.1-8.9,3.1-14.9v-239.4c0-5.7-0.9-10.5-2.6-14.2c-1.8-3.7-6-7.1-12.7-10.2c-4.1-1.9-10-3.7-17.5-5.3
			c-7.5-1.6-13.2-2.6-17-3.1v-18.7h300.9V1180.8z M1013.2,1433.6H869.4v-17.5c3-0.3,6.7-0.7,11-1.2c4.3-0.5,7.6-1.3,9.8-2.4
			c3.3-1.8,5.7-4.3,7.2-7.7c1.4-3.3,2.2-8.3,2.2-14.8v-111.9c0-16.3-3-28.5-9-36.7c-6-8.2-14.8-12.3-26.5-12.3
			c-6.4,0-12.4,1-17.9,2.9c-5.5,1.9-10.9,4.7-16.2,8.4c-4.6,3.2-8.4,6.5-11.2,9.8c-2.8,3.3-5.2,6.3-7.1,8.8v128.4
			c0,5.6,0.8,10.2,2.4,14c1.6,3.7,4.2,6.6,7.9,8.5c2.5,1.4,5.7,2.7,9.6,3.8c3.8,1.1,7.6,1.9,11.2,2.4v17.5H697.5v-17.5
			c4-0.3,8-0.8,12.1-1.3c4.1-0.6,7.5-1.3,10.4-2.3c5.1-1.8,8.6-4.5,10.5-8.1c1.9-3.7,2.9-8.5,2.9-14.4v-139.2
			c0-4.9-1.3-9.8-3.8-14.6c-2.6-4.8-5.9-8.7-10-11.7c-2.9-1.9-6.5-3.5-10.9-4.8c-4.4-1.3-9.2-2.2-14.5-2.6v-17.5l114.1-6.2l3.6,3.6
			v34.7h1c4.5-4,9.9-8.8,16.3-14.4c6.4-5.6,12.3-10.1,17.7-13.6c5.9-3.8,13.6-7.1,23.2-9.8c9.6-2.7,19.8-4.1,30.6-4.1
			c26,0,45.5,7.4,58.5,22.1c13,14.8,19.5,34.3,19.5,58.7V1388c0,5.9,0.9,10.6,2.6,14.1c1.8,3.5,5,6.3,9.8,8.4
			c2.5,1.1,5.7,2.2,9.4,3.3c3.7,1.1,8,1.9,12.8,2.4V1433.6z M1344.5,1428.6l-117.9,6.9l-3.6-3.3v-22l-1.7-0.5
			c-7.8,8.5-18.4,15.8-31.7,22.1c-13.3,6.3-26.7,9.4-40.2,9.4c-32.2,0-58.7-12-79.5-35.9c-20.9-23.9-31.3-54.9-31.3-92.8
			c0-33.6,11.7-62.5,35-86.6c23.3-24.1,51.6-36.1,84.7-36.1c13.1,0,25.3,1.5,36.8,4.4c11.5,3,20.6,6.4,27.5,10.4v-78.2
			c0-5.9-1.2-11.4-3.6-16.6c-2.4-5.2-5.6-9.2-9.6-12.1c-4.9-3.5-11.1-6-18.5-7.5c-7.4-1.5-14.9-2.6-22.4-3.2v-17.5l129.4-6.2
			l3.6,3.8v313.6c0,6.1,1,11.2,3,15.3c2,4.1,5.2,7.4,9.6,9.8c3.3,1.8,8.2,3,14.6,3.8c6.4,0.8,11.7,1.3,15.8,1.4V1428.6z
			 M1222.5,1386v-135.1c-1.1-3.7-2.7-7.7-4.7-12.2c-2-4.5-4.7-8.7-8.2-12.7c-3.2-3.3-7.4-6.3-12.8-8.8c-5.3-2.5-11.3-3.8-18-3.8
			c-15.9,0-28.9,9-39.1,27c-10.2,18-15.3,43.5-15.3,76.3c0,12.9,0.9,24.5,2.7,34.8c1.8,10.3,5,19.7,9.7,28.1
			c4.6,8.5,10.5,15.1,17.8,19.9c7.2,4.8,15.9,7.2,26.1,7.2c9.7,0,17.7-1.9,24.1-5.6C1211.2,1397.2,1217.1,1392.3,1222.5,1386z"/>
	</defs>
	<clipPath id="SVGID_2_">
		<use xlink:href="#SVGID_1_"  style="overflow:visible;opacity:0.2;"/>
	</clipPath>
	<g class="st3">
		<polygon class="st4" points="0,1091.6 1488,1895.2 1488,288 		"/>
	</g>
</g>
</svg>
